<?xml version="1.0" standalone="no"?>
<!DOCTYPE svg PUBLIC "-//W3C//DTD SVG 20010904//EN"
 "http://www.w3.org/TR/2001/REC-SVG-20010904/DTD/svg10.dtd">
<svg version="1.0" xmlns="http://www.w3.org/2000/svg"
 width="512.000000pt" height="512.000000pt" viewBox="0 0 512.000000 512.000000"
 preserveAspectRatio="xMidYMid meet">

<g transform="translate(0.000000,512.000000) scale(0.100000,-0.100000)"
fill="#000000" stroke="none">
<path d="M1935 4789 c-810 -77 -1484 -612 -1668 -1324 -42 -161 -50 -248 -44
-449 6 -191 20 -275 71 -432 39 -116 146 -325 223 -434 76 -106 297 -334 385
-395 l58 -40 0 -314 c0 -298 1 -317 21 -358 11 -23 35 -53 52 -65 41 -29 132
-37 176 -14 17 9 156 105 309 213 l277 196 105 -12 c415 -47 844 32 1200 221
483 256 816 681 920 1176 27 128 37 367 20 498 -118 948 -1057 1632 -2105
1533z m370 -209 c415 -39 790 -205 1069 -471 226 -216 367 -456 433 -742 23
-98 27 -135 27 -287 1 -247 -32 -396 -134 -605 -227 -466 -671 -784 -1242
-891 -135 -25 -432 -30 -581 -9 -151 21 -101 43 -437 -194 -133 -95 -249 -175
-256 -178 -12 -4 -14 43 -14 297 l0 302 -33 31 c-18 18 -64 54 -102 82 -307
219 -525 566 -590 937 -35 199 -12 472 57 666 244 692 1001 1137 1803 1062z"/>
<path d="M1001 3704 c-38 -32 -49 -80 -27 -123 27 -51 59 -61 201 -61 171 0
205 18 205 110 0 33 -6 48 -29 71 l-29 29 -145 0 c-141 0 -146 -1 -176 -26z"/>
<path d="M1641 3704 c-38 -32 -49 -80 -27 -123 33 -64 -2 -61 843 -61 745 0
769 1 800 20 57 34 61 121 8 168 l-26 22 -784 0 -783 0 -31 -26z"/>
<path d="M1018 3184 c-65 -35 -73 -121 -17 -168 l31 -26 783 0 784 0 26 23
c53 46 49 133 -8 167 -31 19 -55 20 -802 20 -662 -1 -774 -3 -797 -16z"/>
<path d="M2945 3191 c-39 -16 -60 -51 -60 -98 0 -38 5 -49 33 -74 l32 -29 145
0 c135 0 145 1 170 23 53 46 49 133 -8 167 -28 17 -50 20 -162 19 -71 0 -139
-4 -150 -8z"/>
<path d="M1032 2659 c-37 -11 -72 -60 -72 -99 0 -43 35 -88 77 -99 49 -14 217
-14 265 -1 80 23 106 119 48 175 -30 29 -33 29 -158 32 -70 1 -142 -2 -160 -8z"/>
<path d="M1672 2659 c-37 -11 -72 -59 -72 -99 0 -44 35 -88 79 -100 27 -7 281
-10 800 -8 l761 3 31 32 c45 44 45 102 0 146 l-31 32 -768 2 c-466 1 -780 -2
-800 -8z"/>
<path d="M4334 2861 c-36 -16 -64 -60 -64 -103 0 -38 7 -46 114 -151 218 -215
305 -403 306 -660 0 -257 -98 -468 -315 -674 l-105 -100 0 -243 0 -244 -157
156 c-97 95 -169 158 -185 162 -17 4 -70 -3 -130 -16 -84 -18 -136 -22 -278
-22 -190 -1 -304 17 -454 71 -75 27 -221 98 -271 132 -62 43 -142 17 -165 -54
-20 -59 8 -98 113 -160 166 -99 388 -172 592 -196 118 -14 336 -6 445 16 l74
15 231 -229 c126 -126 241 -232 253 -236 37 -11 86 3 113 31 l24 26 3 351 3
352 84 84 c313 311 417 730 280 1123 -52 149 -145 297 -264 421 -121 126 -194
170 -247 148z"/>
</g>
</svg>
